<svg viewBox="0 0 19 19" fill="none" xmlns="http://www.w3.org/2000/svg">
  <path
    d="M5.18774 6.16366C5.13812 6.0956 5.18673 6 5.27096 6H16.897C16.9607 6 17.0091 6.05718 16.9986 6.11997L16.5181 8.99312C16.5098 9.04276 16.4668 9.07912 16.4165 9.07912H7.36583C7.33293 9.07912 7.302 9.0634 7.28262 9.03681L5.18774 6.16366Z"
    fill="currentColor" />
  <path
    d="M12.8123 12.9941C12.8619 13.0622 12.8133 13.1578 12.729 13.1578H1.10301C1.03935 13.1578 0.990936 13.1006 1.00144 13.0378L1.48191 10.1647C1.49021 10.115 1.53316 10.0787 1.58349 10.0787H10.6342C10.6671 10.0787 10.698 10.0944 10.7174 10.121L12.8123 12.9941Z"
    fill="currentColor" />
</svg>